<svg width="32" height="32.292" version="1.1" viewBox="0 0 8.4667 8.544" xmlns="http://www.w3.org/2000/svg">
 <g transform="translate(347.73 -448.64)">
  <g transform="matrix(.033672 0 0 .033672 -331.93 437.66)">
   <path x="-469.21832" y="328.33865" width="251.44716" height="251.44716" d="m-431.5 328.34h176.01a37.717 37.717 45 0 1 37.717 37.717v176.01a37.717 37.717 135 0 1-37.717 37.717h-176.01a37.717 37.717 45 0 1-37.717-37.717v-176.01a37.717 37.717 135 0 1 37.717-37.717z" fill="#092336"/>
   <g transform="matrix(1.0708 0 0 1.0708 23.253 -39.265)">
    <path transform="scale(.26458)" d="m-1090 1347.6-151.95 40.695 14.467 53.969c15.4 10.247 32.396 20.542 53.783 34.734 29.256 18.806 62.604 43.162 93.713 78.469l0.066 0.066 0.061 0.074c28.119 32.406 49.681 71.176 62.42 113.88 5.0366 16.884 8.7017 34.412 10.859 52.389l0.01 0.09 0.016 0.08c6.4625 57.298-3.69 114.07-27.418 163.44l-0.01 0.022-0.01 0.016c-14.359 29.746-33.049 55.164-54.221 76.297l46.992 175.31 151.95-40.697zm-383.92 6.7129c1.0061 7.8932 3.0829 21.079 9.5586 43.525 9.3152 32.288 26.804 73.356 57.055 109.54l0.082 0.096 0.08 0.096c6.7797 8.2821 14.049 16.018 21.727 23.904l15.66-58.418c-16.167-35.89-24.067-69.864-27.59-98.234zm-64.764 141.39-126.92 473.46 25.1 12.236s7.9943 4.0005 25.047 8.6152c16.61 4.4949 40.409 8.3732 66.65 4.9825l0.016-0.01h0.016c13.822-1.7709 28.254-5.6768 42.236-11.68l68.228-254.52c-7.8173-15.251-17.438-31.966-27.816-50.01-19.157-32.214-38.32-65.604-53.068-104.15l-0.029-0.066-0.024-0.074c-10.404-27.699-16.318-54.205-19.438-78.783zm-137.45 512.75-23.584 87.979 151.95 40.697 9.6094-35.844c-6.8914-1.522-13.622-3.2132-19.975-5.2285h-0.01l-0.01-0.01c-41.294-13.138-70.126-35.086-87.164-51.031-17.092-15.996-25.764-28.871-25.764-28.871z" fill="#856903"/>
    <path d="m-363.11 341.16s-1.386 5.7451-0.85151 16.01c0.52843 10.148 3.3099 25.233 12.933 40.433 5.5249 8.6066 11.974 15.835 18.586 22.989 5.8584 6.5326 11.469 12.539 15.038 18.391 3.2069 5.131 5.7351 10.634 7.3738 16.033 0.65272 2.1506 1.1766 4.3228 1.536 6.5018 1.223 6.8003 1.1108 14.331-0.56935 21.378-1.7552 7.4596-5.3894 14.678-10.275 20.503-5.6708 6.79-12.956 11.563-20.159 14.301 4.6291-8.459 7.6134-18.04 8.5123-28.174 0.3593-4.4087 0.33634-8.7902-0.0462-13.09-0.96748-10.876-4.2392-21.31-9.3714-30.571-5.7985-10.283-12.687-18.082-19.06-24.486-7.2046-7.454-12.617-12.193-17.76-18.475-8.739-10.453-13.676-22.11-16.326-31.296-2.6187-9.0768-3.0589-15.051-3.0589-15.051s-2.5013 5.2857-4.0228 15.417c-1.5043 10.017-1.7867 25.361 4.6056 42.38 3.6937 9.6538 8.5672 18.174 13.615 26.66 4.4334 7.7074 8.7281 14.846 11.056 21.366 2.1171 5.7354 3.4961 11.678 4.0247 17.317 0.21057 2.2461 0.29157 4.4842 0.20832 6.6911-0.15733 6.9104-1.767 14.228-4.8154 20.716-3.204 6.8736-8.1999 13.083-14.142 17.648-6.9986 5.4004-15.209 8.405-22.896 9.3898-8.0232 1.0367-15.141-0.14227-20.108-1.4865-4.9733-1.3458-7.7518-2.7005-7.7518-2.7005s1.7329 2.6376 5.8483 6.4891c4.0203 3.7624 10.858 8.9718 20.649 12.087 9.4345 2.993 21.697 3.945 34.52-0.16653 9.7814-3.1516 19.425-9.0964 27.383-17.983 3.042 0.86096 6.4415 1.5296 10.177 1.8288 9.7963 0.77648 21.944-1.0896 33.629-8.0408 10.062-6.0046 19.249-15.449 25.332-28.049 5.7592-11.981 8.24-25.822 6.6658-39.779-0.52782-4.3975-1.423-8.681-2.6524-12.802-3.1098-10.425-8.379-19.892-15.228-27.786-7.7028-8.7424-15.974-14.804-23.464-19.619-8.5103-5.6522-14.732-9.0543-20.999-14.03-10.604-8.2375-17.74-18.522-22.154-26.909-4.3616-8.2873-5.981-14.035-5.981-14.035z" fill="#d1b755"/>
   </g>
  </g>
 </g>
</svg>
