<svg width="32" height="32" viewBox="0 0 8.467 8.467" xmlns="http://www.w3.org/2000/svg"><defs><radialGradient id="a" cx="178.7" cy="224.71" r="105.83" gradientTransform="matrix(-4.5118 0 0 -4.4966 1017.9 1010.4)" gradientUnits="userSpaceOnUse"><stop stop-color="#195b8c" offset="0"/><stop stop-color="#092336" offset="1"/></radialGradient><radialGradient id="b" cx="105.83" cy="105.83" r="98.137" gradientTransform="matrix(.68726 0 0 3.3097 33.099 -244.44)" gradientUnits="userSpaceOnUse"><stop stop-color="#f2f4b7" offset="0"/><stop stop-color="#c68d1c" offset="1"/></radialGradient></defs><path d="M31.75 0h148.17a31.75 31.75 45 0 1 31.75 31.75v148.17a31.75 31.75 135 0 1-31.75 31.75H31.75A31.75 31.75 45 0 1 0 179.92V31.75A31.75 31.75 135 0 1 31.75 0z" fill="url(#a)" fill-rule="evenodd" transform="scale(.04)"/><path d="m118.36 14.92-.001.003.002-.002zm-.001.003c-.007.005-3.372 3.36-6.596 10.56-3.187 7.123-6.035 18.478-2.629 31.893 2.248 8.543 6.293 16.282 10.643 23.94 3.917 7.173 7.747 13.667 9.578 19.852.253.801.484 1.607.691 2.415 1.326 5.163 1.773 10.613 1.076 15.892-1.283 10.213-7.648 18.4-15.505 24.758-3.196 2.603-6.526 4.851-9.818 6.673a48.482 48.482 0 0 0 5.665-13.168 49.344 49.344 0 0 0-.778-27.504c-3.07-9.195-8.065-16.735-12.95-23.275-5.24-7.257-9.675-12.59-12.888-18.93-5.021-9.617-6.02-19.517-5.589-26.841.427-7.272 1.99-11.65 1.99-11.65s-3.238 3.378-6.37 10.602c-3.094 7.138-5.9 18.5-2.764 31.869 2.071 8.513 5.862 16.208 9.944 23.82 3.672 7.131 7.268 13.584 8.96 19.746.236.798.448 1.601.64 2.407 1.22 5.144 1.602 10.583.895 15.86-1.304 10.208-7.434 18.436-14.97 24.848-7.274 6.233-15.263 10.501-21.72 11.706-6.446 1.204-10.572.884-10.572.884s3.655 1.85 10.687 2.86c6.905.993 17.64.957 28.856-4.399 4.855-2.334 9.564-5.602 13.704-9.717 6.885.3 15.692-.58 24.785-4.664 12.247-5.537 23.563-16.506 27.682-31.823 2.07-7.806 2.076-16.024.046-23.896a48.667 48.667 0 0 0-1.098-3.655c-3.301-9.234-8.61-16.83-13.794-23.42-5.564-7.312-10.265-12.69-13.693-19.067-5.355-9.674-6.488-19.597-6.098-26.928.387-7.273 1.985-11.641 1.988-11.648zm12.059 14.615-10.564 4.27c.531 5.576 2.08 11.894 5.508 18.088l.011.018.011.018c3.19 5.936 7.76 11.21 13.378 18.59 5.269 6.699 10.822 14.6 14.308 24.35l.008.02.007.018a51.974 51.974 0 0 1 1.174 3.905c2.162 8.38 2.161 17.138-.03 25.47l33.202 72.461 16.54-6.685zM84.325 30.78c-.118.337-1.376 4.039-1.762 10.6v.002c-.34 5.768.31 13.286 3.305 20.86l11.922-26.02zm-16.88 28.885-59.747 130.4 16.541 6.685 50.01-109.15c-2.162-4.696-4.072-9.567-5.348-14.81l-.003-.013-.004-.014a54.612 54.612 0 0 1-1.448-13.1z" fill="url(#b)" opacity=".933" transform="scale(.04)"/></svg>