<svg width="32" height="32" viewBox="0 0 8.467 8.467" xmlns="http://www.w3.org/2000/svg"><defs><radialGradient id="b" cx="110.67" cy="99.246" r="53.615" gradientTransform="matrix(1.3158 0 0 1.1336 -38.657 250.44)" gradientUnits="userSpaceOnUse"><stop stop-color="#f2f4b7" offset="0"/><stop stop-color="#c68d1c" offset="1"/></radialGradient><radialGradient id="a" cx="178.7" cy="224.71" r="105.83" gradientTransform="matrix(-4.5118 0 0 -4.4966 1014.2 1274)" gradientUnits="userSpaceOnUse"><stop stop-color="#195b8c" offset="0"/><stop stop-color="#092336" offset="1"/></radialGradient></defs><path d="M34.396 263.52h135.47a38.1 38.1 45 0 1 38.1 38.1v135.47a38.1 38.1 135 0 1-38.1 38.1H34.396a38.1 38.1 45 0 1-38.1-38.1V301.62a38.1 38.1 135 0 1 38.1-38.1z" fill="url(#a)" fill-rule="evenodd" transform="matrix(.04 0 0 .04 .148 -10.54)"/><path d="m5.216 1.184-.422.17c.02.224.083.476.22.724v.001c.128.238.311.448.536.744.21.267.432.583.572.973v.001a2.02 2.02 0 0 1 .046 1.175L7.496 7.87l.66-.267zm-1.843.05a1.984 1.984 0 0 0 .062 1.258l.476-1.04zm-.675 1.155L.31 7.602l.662.268 2-4.364a3.251 3.251 0 0 1-.215-.593 2.184 2.184 0 0 1-.058-.524z" fill="#f2f2f2" opacity=".933"/><path d="M113.16 282.59s-3.37 3.354-6.595 10.559c-3.187 7.12-6.033 18.469-2.628 31.88 2.246 8.54 6.29 16.275 10.638 23.931 3.916 7.17 7.744 13.66 9.574 19.843.253.801.484 1.606.691 2.414 1.326 5.161 1.772 10.608 1.075 15.885-1.282 10.21-7.644 18.393-15.498 24.748-3.194 2.603-6.523 4.85-9.814 6.671a48.461 48.461 0 0 0 5.663-13.162 49.326 49.326 0 0 0-.778-27.494c-3.068-9.19-8.061-16.729-12.944-23.266-5.238-7.254-9.671-12.584-12.883-18.922-5.02-9.613-6.017-19.509-5.586-26.83.427-7.269 1.989-11.645 1.989-11.645s-3.237 3.377-6.367 10.598c-3.094 7.135-5.898 18.492-2.764 31.856 2.071 8.51 5.86 16.201 9.94 23.812 3.671 7.128 7.265 13.578 8.958 19.737.235.798.448 1.6.639 2.406 1.22 5.143 1.601 10.579.894 15.854-1.304 10.205-7.43 18.43-14.964 24.84-7.27 6.23-15.257 10.496-21.71 11.701-6.444 1.203-10.568.883-10.568.883s3.654 1.849 10.683 2.86c6.902.992 17.632.956 28.845-4.398 4.854-2.333 9.56-5.6 13.698-9.713 6.883.299 15.685-.58 24.775-4.662 12.242-5.535 23.554-16.5 27.671-31.81 2.07-7.803 2.076-16.018.046-23.887a48.625 48.625 0 0 0-1.097-3.654c-3.3-9.23-8.607-16.822-13.788-23.41-5.562-7.31-10.261-12.685-13.687-19.06-5.353-9.67-6.485-19.59-6.096-26.917.387-7.276 1.989-11.645 1.989-11.645z" fill="url(#b)" transform="matrix(.04 0 0 .04 .208 -10.704)"/></svg>