<svg width="225.15" height="50.218" version="1.1" viewBox="0 0 59.571 13.287" xmlns="http://www.w3.org/2000/svg" xmlns:xlink="http://www.w3.org/1999/xlink">
 <defs>
  <radialGradient id="radialGradient14335-8-0" cx="105.83" cy="105.83" r="98.137" gradientTransform="matrix(.050222 0 0 .24186 3.8174 397.25)" gradientUnits="userSpaceOnUse">
   <stop stop-color="#f2f4b7" offset="0"/>
   <stop stop-color="#c68d1c" offset="1"/>
  </radialGradient>
 </defs>
 <g transform="translate(-1.9612 -416.2)">
  <path d="m10.048 416.2v1.9e-4zm0 2.4e-4 -3.7e-5 -5e-5 -3.7e-5 1.3e-4 7.4e-5 -7e-5zm-7.4e-5 7e-5c-0.0012 8.6e-4 -0.24646 0.24564-0.48189 0.77164-0.23295 0.52045-0.44104 1.3502-0.19214 2.3306 0.16425 0.62434 0.45984 1.1898 0.77772 1.7495 0.28622 0.52414 0.56616 0.99865 0.6999 1.4506 0.01854 0.0586 0.03535 0.11743 0.05052 0.1765 0.09691 0.37728 0.12953 0.77551 0.07858 1.1612-0.0937 0.7463-0.55884 1.3446-1.133 1.8092-0.23348 0.19026-0.47686 0.35452-0.71741 0.48767 0.17829-0.28803 0.32087-0.60959 0.41399-0.96224 0.14869-0.57088 0.15403-1.1706 0.017375-1.7438-0.021273-0.0892-0.046024-0.17802-0.074252-0.26612-0.22429-0.67188-0.58937-1.2229-0.9463-1.7008-0.38295-0.53028-0.70702-0.91995-0.94181-1.3833-0.36696-0.70273-0.43989-1.4262-0.4084-1.9614 0.031211-0.5314 0.1454-0.85133 0.1454-0.85133s-0.23663 0.24689-0.46548 0.77474c-0.22612 0.52163-0.43114 1.3519-0.20203 2.3289 0.1514 0.62214 0.42842 1.1844 0.72667 1.7407 0.26837 0.52107 0.53112 0.99258 0.65484 1.4428 0.01718 0.0583 0.032741 0.11703 0.046714 0.1759 0.089248 0.37596 0.11707 0.77341 0.06541 1.159-0.095328 0.74602-0.54323 1.3473-1.0939 1.8159-0.53155 0.45545-1.1154 0.76733-1.5872 0.85541-0.47104 0.0879-0.77251 0.0646-0.77251 0.0646s0.26705 0.13513 0.78093 0.20902c0.50456 0.0726 1.289 0.0699 2.1087-0.32151 0.3548-0.17055 0.69891-0.40935 1.0014-0.71006 0.50312 0.0219 1.1467-0.0424 1.8111-0.34081 0.89494-0.40464 1.7219-1.2062 2.0229-2.3255 0.15124-0.57044 0.1517-1.171 0.0033-1.7462-0.0231-0.0896-0.04986-0.17867-0.08025-0.26714-0.24123-0.67478-0.6292-1.2298-1.008-1.7114-0.40659-0.53432-0.75014-0.92734-1.0006-1.3934-0.39126-0.7069-0.47405-1.4321-0.44556-1.9678 0.028242-0.53121 0.14493-0.85022 0.14524-0.85106zm0.88131 1.0679-0.77199 0.312c0.0388 0.4075 0.15201 0.86922 0.40256 1.3219l0.0024 2e-3c0.23315 0.43383 0.56711 0.8192 0.97765 1.3585 0.38501 0.48954 0.79085 1.0669 1.0456 1.7795l0.0024 2e-3c0.03245 0.0944 0.06112 0.18971 0.08579 0.28541 0.15795 0.61234 0.15791 1.2524-0.0021 1.8612l2.4262 5.2952 1.2087-0.48854zm-3.3683 0.0908c-0.00863 0.0246-0.10061 0.29515-0.12876 0.77459v1.3e-4c-0.024812 0.42156 0.022629 0.97087 0.24149 1.5244l0.87122-1.9014zm34.811 1.4472-2.3649 4.2471 0.13878 0.0724 2.1476-3.861c0.01206 0.0845 0.02415 0.15685 0.03622 0.21717 0.01206 0.0603 0.02209 0.11667 0.03013 0.16895l0.03621 0.15683c0.01206 0.0483 0.02613 0.10056 0.04223 0.15687 0.0362 0.14076 0.07039 0.26945 0.10256 0.38609 0.03218 0.11261 0.06637 0.22323 0.10256 0.33182 0.04022 0.10457 0.08246 0.21313 0.1267 0.32574 0.04826 0.10859 0.10658 0.22726 0.17495 0.35595 0.08849 0.18099 0.17093 0.33987 0.24735 0.47661 0.08044 0.13272 0.16487 0.26141 0.25334 0.38609 0.09251 0.12065 0.1971 0.24534 0.31374 0.37404 0.12065 0.1287 0.26745 0.27949 0.44039 0.45244l0.10857-0.10857c-0.17294-0.16892-0.31771-0.31572-0.43435-0.44039-0.11664-0.1287-0.21921-0.25141-0.30769-0.36804-0.08848-0.12066-0.17093-0.2453-0.24735-0.374-0.07641-0.13272-0.15883-0.28958-0.24731-0.47057-0.06033-0.12467-0.11465-0.2393-0.16291-0.34387-0.04424-0.10858-0.08446-0.21516-0.12066-0.31973-0.0362-0.10457-0.07241-0.21317-0.1086-0.32578-0.03217-0.11262-0.06633-0.2373-0.10253-0.37404-0.01609-0.0684-0.03217-0.13272-0.04826-0.19305-0.01206-0.0603-0.02617-0.12871-0.04226-0.20513-0.01609-0.0804-0.03415-0.17695-0.05427-0.28956-0.01609-0.11261-0.03622-0.25739-0.06034-0.43435zm-11.698 0.0844-0.74204 4.2592 0.14478 0.0241 0.71187-4.1143c0.18099 0.0282 0.36197 0.0583 0.54296 0.0905 0.18098 0.0282 0.34386 0.0724 0.48865 0.13274 0.14478 0.0603 0.26345 0.14274 0.35595 0.24731 0.09652 0.10457 0.14879 0.24335 0.15683 0.41629 8e-3 0.15686-0.01005 0.29961-0.0543 0.42831-0.04021 0.12468-0.11463 0.2353-0.22322 0.33182-0.10456 0.0965-0.2413 0.17898-0.41022 0.24735-0.16891 0.0643-0.37605 0.11459-0.62138 0.15079 0.2212 0.19707 0.4384 0.38209 0.65156 0.55504 0.21316 0.16891 0.43032 0.33584 0.65153 0.50073 0.2212 0.16088 0.44644 0.32574 0.67569 0.49466 0.23327 0.16891 0.47658 0.3499 0.72996 0.54295l0.09652-0.12065c-0.24131-0.185-0.47257-0.35795-0.69378-0.51882-0.2212-0.16088-0.43634-0.31572-0.64548-0.46453-0.20512-0.15283-0.40421-0.30164-0.59726-0.44643-0.19305-0.14881-0.38208-0.30162-0.56708-0.45848 0.80437-0.16489 1.1885-0.58317 1.1523-1.2548-0.01206-0.19707-0.07237-0.35595-0.18096-0.4766-0.10457-0.12066-0.24134-0.21718-0.41026-0.28957-0.1649-0.0724-0.35392-0.12668-0.56708-0.16287-0.20914-0.0402-0.42428-0.0784-0.64548-0.11465zm27.702 0-0.74204 4.2592 0.14479 0.0241 0.71186-4.1143c0.18098 0.0282 0.36197 0.0583 0.54295 0.0905 0.18098 0.0282 0.34387 0.0724 0.48865 0.13274 0.14479 0.0603 0.26345 0.14274 0.35596 0.24731 0.09652 0.10457 0.14878 0.24335 0.15682 0.41629 8e-3 0.15686-0.01007 0.29961-0.0543 0.42831-0.04023 0.12468-0.11462 0.2353-0.22321 0.33182-0.10457 0.0965-0.2413 0.17898-0.41022 0.24735-0.16892 0.0643-0.37605 0.11459-0.62139 0.15079 0.22121 0.19707 0.4384 0.38209 0.65156 0.55504 0.21316 0.16891 0.43032 0.33584 0.65152 0.50073 0.2212 0.16088 0.44645 0.32574 0.67569 0.49466 0.23327 0.16891 0.47658 0.3499 0.72995 0.54295l0.09652-0.12065c-0.24131-0.185-0.47254-0.35795-0.69374-0.51882-0.2212-0.16088-0.43638-0.31572-0.64552-0.46453-0.20512-0.15283-0.4042-0.30164-0.59726-0.44643-0.19305-0.14881-0.38208-0.30162-0.56709-0.45848 0.80437-0.16489 1.1885-0.58317 1.1523-1.2548-0.0121-0.19707-0.07237-0.35595-0.18096-0.4766-0.10457-0.12066-0.24134-0.21718-0.41026-0.28957-0.1649-0.0724-0.35393-0.12668-0.56708-0.16287-0.20914-0.0402-0.42428-0.0784-0.64548-0.11465zm-21 0.0724v4.0902l2.1477-0.28957-0.03017-0.14478-1.9667 0.26543v-3.9213zm-17.797 0.0301-0.14478 0.0241-0.39817 4.1626 0.15082 0.0121 0.36799-3.855 1.3936 3.3965 0.13879 6e-3 1.7736-3.1793 0.46453 3.6197 0.14478-0.0121-0.50074-3.8489-0.13874-0.0302-1.8038 3.2396zm29.675 0-0.14482 0.0241-0.39813 4.1626 0.15078 0.0121 0.368-3.855 1.3936 3.3965 0.13874 6e-3 1.7736-3.1793 0.46452 3.6197 0.14479-0.0121-0.5007-3.8489-0.13878-0.0302-1.8038 3.2396zm-24.921 0.0603-0.14479 0.0121 0.08448 2.0331-0.14478 1.9365 0.14478 0.0121 0.14479-1.9486zm4.9951 0-0.14478 0.0121 0.08448 2.0331-0.14478 1.9365 0.14478 0.0121 0.14478-1.9486zm24.68 0-0.14478 0.0121 0.08444 2.0331-0.14479 1.9365 0.14479 0.0121 0.14479-1.9486zm-28.782 6e-3 -0.07843 0.0724-0.12066 4.1506h0.14479l0.1146-3.8851c0.04022 0.10859 0.09252 0.2433 0.15687 0.40417 0.06837 0.16088 0.1488 0.3278 0.2413 0.50074 0.17294 0.32577 0.368 0.6093 0.58517 0.85061 0.21718 0.23729 0.44243 0.45849 0.67569 0.66361 0.23328 0.20109 0.46854 0.39416 0.70583 0.57917 0.24131 0.185 0.47055 0.38607 0.68773 0.60325l0.13274-0.0543v-3.7162h-0.15082v3.5352c-0.2011-0.19707-0.41224-0.38408-0.63344-0.56104-0.2212-0.18099-0.44241-0.368-0.66361-0.56104-0.21718-0.19305-0.43033-0.40423-0.63947-0.63348-0.20511-0.23326-0.39415-0.5007-0.56708-0.80234-0.04827-0.0845-0.09454-0.17895-0.13879-0.28352-0.04424-0.10457-0.08846-0.20513-0.13269-0.30166-0.04022-0.10054-0.08043-0.19305-0.12066-0.27752-0.0362-0.0885-0.0724-0.15686-0.1086-0.20512l-0.03622-0.0362c-0.02012-0.0242-0.03818-0.0382-0.05426-0.0422zm20.089 0.28957-0.12065 0.0965 1.3272 1.7616-1.4479 1.7616 0.12066 0.0965 1.4237-1.7314 0.67569 0.86873 0.63948 0.96526 0.12065-0.0845-0.63947-0.97129-0.69983-0.89888 1.1824-1.665-0.12066-0.0845-1.1523 1.6168zm-10.889 0.0965-0.02413 3.7343 2.3106-0.41022-0.02413-0.14479-2.1356 0.38005 0.01208-1.7978 1.2729-0.10256-0.01206-0.14479-1.2609 0.10257 0.0061-1.4539 1.291 0.13878 0.01208-0.14479zm20.349 0-0.02411 3.7343 2.3106-0.41022-0.02411-0.14479-2.1356 0.38005 0.0121-1.7978 1.2729-0.10256-0.0121-0.14479-1.2608 0.10257 6e-3 -1.4539 1.291 0.13878 0.01206-0.14479zm-48.448 0.0241-4.3661 9.5288 1.2087 0.48854 3.6545-7.9759c-0.15795-0.34316-0.29754-0.69916-0.39076-1.0822v-0.00172c-0.079149-0.33745-0.10908-0.65821-0.10585-0.95722zm36.425 2.009-1.3574 0.2413 0.01809 0.14482 1.3513-0.24134zm-17.072 3.2356-0.25729 0.40935h0.25623l0.36663-0.38854v-0.0208zm7.3038 0.55515c-0.20346 0-0.37013 0.0458-0.49998 0.1375-0.12916 0.091-0.19372 0.20868-0.19372 0.35312 0 0.10763 0.02844 0.19792 0.08538 0.27084 0.05763 0.0722 0.15173 0.12949 0.28228 0.17185 0.05694 0.0188 0.1177 0.0344 0.18228 0.0469 0.06528 0.0118 0.12708 0.0247 0.18542 0.0385 0.05555 0.0132 0.09758 0.0323 0.12605 0.0573 0.02917 0.0243 0.04373 0.0535 0.04373 0.0875 0 0.0368-0.01008 0.0646-0.03021 0.0833-0.01945 0.0188-0.04444 0.0344-0.075 0.0469-0.025 0.01-0.05728 0.0166-0.09686 0.0208-0.03958 4e-3 -0.07153 6e-3 -0.09584 6e-3 -0.09444 0-0.19303-0.0177-0.2958-0.0531-0.10208-0.0354-0.19443-0.0861-0.27707-0.15207h-0.04377v0.37185c0.08333 0.0347 0.17257 0.0635 0.2677 0.0864 0.09583 0.0222 0.20796 0.0333 0.33643 0.0333 0.22222 0 0.3979-0.0476 0.52706-0.1427 0.12985-0.0958 0.19478-0.22014 0.19478-0.37291 0-0.10694-0.02844-0.19371-0.08538-0.26037-0.05625-0.0674-0.14375-0.12048-0.2625-0.15936-0.06041-0.0195-0.117-0.0347-0.16978-0.0458-0.05208-0.0111-0.10661-0.0226-0.16355-0.0344-0.08681-0.0181-0.14582-0.0379-0.17707-0.0594-0.03125-0.0222-0.04686-0.0538-0.04686-0.0948 0-0.0271 0.0097-0.051 0.02915-0.0719 0.01945-0.0215 0.0427-0.0375 0.06979-0.0479 0.03055-0.0125 0.06214-0.0208 0.09478-0.025 0.03334-5e-3 0.06667-7e-3 0.09999-7e-3 0.09445 0 0.1868 0.017 0.27708 0.0511 0.09096 0.0333 0.1677 0.075 0.2302 0.12499h0.04271v-0.35727c-0.07292-0.0299-0.15936-0.0545-0.25935-0.074-0.0993-0.0201-0.19999-0.0302-0.30206-0.0302zm-13.946 0.0281v1.551h0.39998v-0.50515h0.24892c0.1132 0 0.20765-0.0156 0.28333-0.0469 0.0764-0.0312 0.14548-0.0774 0.20728-0.13852 0.04515-0.0451 0.07985-0.10071 0.10416-0.16668 0.02431-0.0667 0.03648-0.13471 0.03648-0.20415 0-0.0896-0.01666-0.16632-0.04999-0.2302-0.03264-0.0639-0.08021-0.11631-0.14271-0.15728-0.05208-0.034-0.11215-0.0593-0.18021-0.076-0.06735-0.0174-0.15032-0.0261-0.24892-0.0261zm1.5634 0v1.551h0.39791v-0.56871h0.18435l0.42292 0.56871h0.48849l-0.51769-0.66455c0.09861-0.0479 0.17433-0.10798 0.22711-0.1802 0.05347-0.0722 0.08017-0.16559 0.08017-0.28016 0-0.0833-0.01736-0.15243-0.05208-0.20728-0.03402-0.0556-0.08018-0.1007-0.13852-0.13542-0.05763-0.0347-0.11945-0.0573-0.18541-0.0677-0.06596-0.0104-0.14477-0.0156-0.23643-0.0156zm1.5989 0v0.27499h0.25415v1.001h-0.25415v0.27499h0.90828v-0.27499h-0.25414v-1.001h0.25414v-0.27499zm1.0614 0 0.5656 1.551h0.44787l0.56562-1.551h-0.40934l-0.375 1.0895-0.37497-1.0895zm2.202 0-0.57292 1.551h0.40313l0.10728-0.3135h0.57495l0.10728 0.3135h0.41355l-0.5729-1.551zm1.101 0v0.29999h0.48435v1.251h0.39998v-1.251h0.48435v-0.29999zm1.6093 0v1.551h0.36664v-1.0645l0.65829 1.0645h0.38541v-1.551h-0.36664v0.88852l-0.56562-0.88852zm2.2061 0-0.57286 1.551h0.40308l0.10729-0.3135h0.57498l0.10728 0.3135h0.41354l-0.57291-1.5507zm3.9009 0-0.57291 1.551h0.40312l0.10728-0.3135h0.57494l0.10732 0.3135h0.4135l-0.57291-1.551zm1.2343 0v0.9906c0 0.19096 0.05801 0.33748 0.17397 0.43956 0.11667 0.10208 0.28851 0.15309 0.51558 0.15309 0.22708 0 0.39896-0.051 0.51562-0.15309 0.11666-0.10208 0.17499-0.24896 0.17499-0.44062v-0.98954h-0.40206v0.96768c0 0.1118-0.02325 0.19303-0.06978 0.24372-0.04583 0.0507-0.11877 0.0761-0.21877 0.0761-0.10138 0-0.17464-0.0264-0.21978-0.0792-0.04514-0.0528-0.06768-0.13296-0.06768-0.24059v-0.96768zm1.7541 0v1.551h0.36664v-1.0645l0.65832 1.0645h0.38541v-1.551h-0.36667v0.88852l-0.56558-0.88852zm2.2061 0-0.5729 1.551h0.40312l0.10729-0.3135h0.57498l0.10728 0.3135h0.41351l-0.57286-1.5507zm-18.476 0.28542h0.14478c0.04791 0 0.08991 1e-3 0.12602 4e-3 0.03611 2e-3 0.06774 9e-3 0.09482 0.0198 0.03889 0.016 0.06631 0.0379 0.08228 0.0656 0.01597 0.0278 0.02394 0.0611 0.02394 0.1 0 0.0437-0.0065 0.0788-0.01978 0.10521-0.0125 0.0257-0.03264 0.0493-0.06043 0.0708-0.02917 0.0222-0.06529 0.0364-0.10833 0.0427-0.04306 6e-3 -0.0965 9e-3 -0.16039 9e-3h-0.12292zm-1.5614 4e-3h0.06873c0.06596 0 0.11876 1e-3 0.15833 3e-3 0.03958 1e-3 0.08021 0.0104 0.12187 0.0271 0.03125 0.0125 0.05868 0.0347 0.08229 0.0667 0.02361 0.0312 0.03542 0.0687 0.03542 0.11245 0 0.0444-0.0059 0.0823-0.01772 0.11356-0.0111 0.0306-0.02951 0.0569-0.0552 0.0791-0.02987 0.025-0.067 0.0417-0.11145 0.05-0.04374 8e-3 -0.09966 0.0125-0.1677 0.0125h-0.11457zm6.2507 0.10729 0.19059 0.55624h-0.38121zm4.9164 0 0.19062 0.55624h-0.38121zm3.9009 0 0.19059 0.55624h-0.38122zm5.1945 0 0.19063 0.55624h-0.38125z" fill="url(#radialGradient14335-8-0)" opacity=".93269"/>
 </g>
</svg>
